<svg width="24" height="24" viewBox="0 0 24 24" fill="none" xmlns="http://www.w3.org/2000/svg">
<path d="M4 11.0007V14.0007C4 15.1053 4.89543 16.0007 6 16.0007H7C8.10457 16.0007 9 15.1053 9 14.0007V13.0007C9 11.8962 8.10457 11.0007 7 11.0007H4ZM4 11.0007V9.35145C4 9.1194 4.03924 8.88878 4.12251 8.6722C5.22686 5.80004 7.20295 3.03323 12.0241 3.03323C16.8646 3.03323 18.8756 5.76115 19.8991 8.70059C19.9681 8.89873 20 9.10759 20 9.31739V11.0007M20 16.0007H17C15.8954 16.0007 15 15.1053 15 14.0007V13.0007C15 11.8962 15.8954 11.0007 17 11.0007H20M20 16.0007V14.0007V11.0007M20 16.0007C20 16.0007 19.6955 18.8036 18.2587 19.976C16.8219 21.1484 15 21.085 15 21.085M15 21.085V20.1081C15 19.5487 14.5375 19.0952 13.9781 19.0952V19.0952C13.4287 19.0952 12.9744 19.5407 12.9744 20.0901V20.0901C12.9744 20.6396 13.4198 21.085 13.9693 21.085H15Z" stroke="#005253" stroke-linecap="round" stroke-linejoin="round"/>
</svg>
